<?xml version="1.0" encoding="UTF-8"?>
<svg id="Layer_1" data-name="Layer 1" xmlns="http://www.w3.org/2000/svg" viewBox="0 0 841.89 232.89">
  <defs>
    <style>
      .cls-1 {
        fill: none;
        stroke: #fff;
        stroke-miterlimit: 10;
      }

      .cls-2 {
        font-family: Arial-BoldMT, Arial;
        font-size: 13.02px;
        font-weight: 700;
      }

      .cls-2, .cls-3 {
        fill: #fff;
      }

      .cls-3 {
        stroke-width: 0px;
      }
    </style>
  </defs>
  <g>
    <path class="cls-3" d="M222.44,96.34c-7.46-1.74-20.85-11.11-39.41.03-4.3,2.58-7.32,5.71-10.23,9.91-11.78,17.06-11.87,46.39-2.06,62.73,9.17,15.25,26.63,18.48,41.93,10.71,4.53-2.3,6.22-4.64,9.77-7.02v8.39h15.1V59.42h-15.1v36.92ZM179.65,142.49c0-13.1.35-28,12.28-34.71,6.84-3.85,17.5-3.14,24.67-.55,2.34.84,5.85,1.42,5.85,4.22v46.99c0,3.4-6.82,5.95-9.49,7.29-10.17,5.1-23.2,4.91-28.57-4.47-2.49-4.34-4.73-12.26-4.73-18.76Z"/>
    <rect class="cls-3" x="259.36" y="60.26" width="15.1" height="120.83"/>
    <path class="cls-3" d="M39.52,181.09h15.1v-60.42c0-4.24,15.12-11.75,22.65-11.75,4.25,0,4.57.84,9.23.84v-15.94c-22.24,0-20.41,4.9-31.89,12.59v-12.59h-15.1v87.27Z"/>
    <rect class="cls-3" x="97.41" y="93.82" width="15.1" height="87.27"/>
    <rect class="cls-3" x="134.34" y="93.82" width="15.1" height="87.27"/>
    <rect class="cls-3" x="95.74" y="65.29" width="17.62" height="15.1"/>
    <rect class="cls-3" x="132.66" y="65.29" width="17.62" height="15.1"/>
    <path class="cls-1" d="M300.95,56.82c4.66,0,8.43,3.77,8.43,8.43s-3.77,8.43-8.43,8.43-8.43-3.77-8.43-8.43,3.77-8.43,8.43-8.43Z"/>
    <text class="cls-2" transform="translate(296.61 70.32)"><tspan x="0" y="0">R</tspan></text>
  </g>
  <g>
    <path class="cls-3" d="M447.37,122.05c-1.83,20.05-19.34,41.37-45.59,42.93-28.46,1.7-49.57-19.98-51.96-43.36,1.59,5.64,4.58,10.35,9.29,13.88,4.75,3.57,10.14,5.25,16.06,4.95,10.14-.52,19.58-7.61,22.02-16.49-.53-.35-1.11-.71-1.66-1.1-3.88-2.74-6.62-6.24-7.16-11.12-.29-2.66.3-5.16,1.8-7.36,1.09-1.6,2.34-3.08,3.53-4.6,2.22-2.86,4.08-5.94,4.12-9.67.02-2.13-.45-4.26-.7-6.39-.05-.42-.11-.84-.17-1.3.22.03.37,0,.46.06,6.27,4.45,11.13,10.02,12.51,17.78,1.42,7.97-.56,15.02-6.99,20.42-.76.64-1.51,1.28-2.28,1.9-.61.5-.76,1.04-.44,1.81,3.76,9.04,10.36,14.51,20.13,15.87,12.26,1.7,23.5-6.25,26.79-17.49.07-.24.17-.48.26-.71Z"/>
    <path class="cls-3" d="M604.51,115.51c.3-.72.48-1.12.65-1.54,4.29-10.91,8.59-21.82,12.82-32.76.47-1.22,1.07-1.57,2.33-1.55,4.82.08,9.64.03,14.46.03.46,0,.93,0,1.45,0v5.2c-1.5.29-2.98.52-4.43.89-.36.09-.86.62-.86.94-.04,11.87-.02,23.75-.01,35.62,0,.08.05.16.11.36,1.66.33,3.38.68,5.17,1.03v5.06h-18.93v-5.08c1.49-.27,3-.56,4.51-.8.71-.11,1-.39,1-1.17,0-10.5.04-20.99.06-31.49,0-.08-.03-.17-.13-.61-.3.64-.49,1.01-.65,1.4-4.73,11.85-9.47,23.69-14.17,35.55-.35.88-.74,1.31-1.75,1.23-1.62-.12-3.61.45-4.77-.3-1.11-.72-1.37-2.75-1.98-4.22-4.4-10.64-8.78-21.28-13.18-31.92-.18-.42-.37-.84-.75-1.25-.02.35-.07.71-.06,1.06.14,10.15.3,20.3.4,30.45,0,.91.38,1.18,1.17,1.3,1.52.23,3.04.51,4.6.78v5.06h-18.98v-5.05c1.35-.26,2.72-.56,4.1-.77.81-.12,1.16-.42,1.15-1.31-.03-11.53-.03-23.06,0-34.59,0-.93-.3-1.27-1.21-1.38-1.32-.16-2.62-.49-4.02-.77v-5.13c.41-.03.86-.08,1.31-.08,4.91,0,9.81.03,14.72-.03,1.05-.01,1.49.36,1.86,1.29,4.38,10.92,8.81,21.83,13.22,32.74.2.5.42,1,.77,1.82Z"/>
    <path class="cls-3" d="M524.88,104.31c0-5.01.81-9.85,3.23-14.3,4.11-7.55,10.48-11.24,19.09-10.96,8.43.28,14.53,4.34,17.93,11.94,3.83,8.56,3.83,17.41.28,26.06-3.45,8.43-10.83,12.86-20.02,12.56-8.68-.29-15.65-5.6-18.76-14.28-1.28-3.56-1.74-7.25-1.75-11.02ZM533.37,104.28c0,4.72.72,8.62,2.2,11.68,1.55,3.19,3.83,5.64,7.39,6.49,6.48,1.55,12.58-.76,15.1-8.49,1.39-4.28,1.54-8.69,1.19-13.13-.25-3.15-.9-6.21-2.46-9-1.5-2.69-3.61-4.68-6.63-5.56-6.66-1.93-12.49.98-15.09,7.52-1.34,3.37-1.68,6.91-1.71,10.49Z"/>
    <path class="cls-3" d="M650.63,123.05c1.26.26,2.34.49,3.44.71v5.03h-15.4v-5c.33-.08.66-.24.98-.22,2.02.13,2.79-.96,3.45-2.76,4.86-13.27,9.85-26.48,14.76-39.73.38-1.04.83-1.51,2.01-1.43,1.8.12,3.61.09,5.42,0,1.03-.05,1.48.29,1.84,1.27,4.96,13.55,9.99,27.07,14.93,40.62.49,1.34,1.18,1.94,2.55,1.94.51,0,1.01.16,1.6.26v5.05h-15.43v-5.04c1.04-.22,2.12-.45,3.41-.72-.44-1.34-.84-2.63-1.28-3.9-.43-1.25-.56-2.97-1.46-3.61-.89-.64-2.56-.25-3.89-.25-4.34-.02-8.69.02-13.03-.03-.92,0-1.38.27-1.66,1.17-.67,2.17-1.44,4.3-2.23,6.62ZM669.39,108.72c-2.29-6.55-4.53-12.95-6.77-19.36-.1,0-.2,0-.3,0-2.25,6.41-4.5,12.82-6.79,19.35h13.86Z"/>
    <path class="cls-3" d="M802.32,123.77v5.03h-15.33v-5.03c1.07-.22,2.14-.45,3.42-.72-.85-2.52-1.65-4.95-2.52-7.35-.08-.22-.63-.39-.96-.39-5.5-.02-11.01-.03-16.51,0-.38,0-.99.28-1.1.58-.87,2.32-1.64,4.68-2.49,7.16,1.2.25,2.28.47,3.42.7v5.06h-15.34v-5.02c.28-.07.57-.21.85-.19,2.14.16,2.91-1.06,3.59-2.93,4.86-13.26,9.86-26.47,14.77-39.71.36-.96.77-1.35,1.83-1.3,1.89.09,3.79.07,5.67,0,.92-.03,1.34.28,1.66,1.16,4.95,13.5,9.97,26.98,14.88,40.49.56,1.53,1.3,2.27,2.9,2.21.37-.01.76.14,1.26.24ZM778.83,89.37c-.1,0-.2,0-.3-.01-2.25,6.42-4.51,12.84-6.8,19.38h13.86c-2.28-6.51-4.52-12.94-6.77-19.37Z"/>
    <path class="cls-3" d="M518.6,94.79h-6.37c-.37-2-.69-3.98-1.12-5.94-.1-.48-.44-1.07-.84-1.29-3.84-2.06-7.91-2.6-12.09-1.29-3.15.99-4.78,3.39-4.72,6.46.04,2.14,1.02,3.84,2.86,4.72,2.66,1.27,5.43,2.35,8.23,3.28,3.32,1.1,6.61,2.2,9.51,4.19,5.18,3.55,7.27,9.13,5.52,14.84-1.23,4.05-4.05,6.74-7.91,8.1-9.27,3.27-18.1,2.07-26.37-3.23-.28-.18-.6-.58-.6-.88-.04-3.56-.03-7.13-.03-10.77h6.48c.33,2.14.62,4.31,1.02,6.45.09.47.45,1.04.86,1.27,4.18,2.39,8.68,2.99,13.32,1.85,2.79-.68,4.75-2.42,5.2-5.42.45-3.02-.74-5.53-3.69-7.02-2.25-1.13-4.68-1.91-7.09-2.68-3.95-1.26-7.87-2.54-11.16-5.17-5.97-4.78-6.38-13.54-.69-18.66,1.68-1.51,3.81-2.81,5.95-3.44,7.9-2.32,15.46-1.36,22.48,3.17.94.61,1.28,1.3,1.25,2.43-.08,2.96-.03,5.92-.03,9.01Z"/>
    <path class="cls-3" d="M713.07,84.89v-5.1c.39-.03.76-.09,1.13-.09,5.33,0,10.67.02,16-.02,1.01,0,1.38.27,1.31,1.31-.08,1.27-.02,2.56-.02,3.88-1.58.23-3.02.43-4.7.67,3.31,6.27,6.55,12.42,9.9,18.76,3.59-6.31,7.09-12.44,10.68-18.75-1.59-.19-3.01-.42-4.44-.52-.8-.05-1.17-.28-1.11-1.14.09-1.32-.4-3.11.28-3.84.65-.69,2.48-.33,3.79-.34,4.17-.03,8.34-.01,12.52,0,.46,0,.92.04,1.43.07v5.11c-1.26.2-2.53.35-3.77.62-.44.1-.96.41-1.17.78-4.66,8.03-9.28,16.07-13.88,24.13-.24.42-.33.97-.34,1.47-.03,3.22.02,6.45-.04,9.68-.02.95.34,1.28,1.2,1.41,1.36.21,2.7.49,4.12.76v5.08h-18.91v-5.08c1.36-.26,2.74-.56,4.13-.77.83-.13,1.14-.48,1.12-1.35-.05-3.01.01-6.02-.04-9.03-.01-.65-.24-1.36-.56-1.93-4.51-8.01-9.07-15.99-13.59-24-.45-.79-.96-1.21-1.87-1.28-1.02-.08-2.03-.31-3.17-.49Z"/>
    <path class="cls-3" d="M704.29,122.73c1.39.26,2.82.56,4.25.8.7.12,1.04.39,1,1.18-.07,1.32-.02,2.65-.02,4.08h-19.1v-5.03c1.72-.35,3.48-.7,5.29-1.07v-1.24c0-11.4-.01-22.79.02-34.19,0-.97-.16-1.48-1.26-1.59-1.36-.14-2.69-.5-4.08-.78v-5.11c.42-.03.8-.08,1.18-.08,5.55,0,11.1.02,16.64-.02.98,0,1.41.22,1.33,1.29-.09,1.28-.02,2.56-.02,3.91-1.54.3-2.96.62-4.39.85-.66.11-.97.31-.97,1.05.02,11.83.02,23.65.02,35.48,0,.12.05.25.1.49Z"/>
    <path class="cls-3" d="M733.19,141.29c0,.55-.03.98,0,1.4.06.71-.15,1.09-.94,1.23-.35.06-.88.6-.88.93-.06,3.74-.04,7.47-.04,11.18q2.04,1.02,1.7,3.02h-7.65c-.47-1.99-.41-2.11,1.64-2.91v-4.06h-6.46v4.07q1.91.75,1.66,2.88h-7.83v-2.33c.58-.16,1.11-.31,1.78-.49v-7.06c0-1.2-.05-2.41.01-3.61.05-.97-.05-1.69-1.26-1.75-.21-.01-.51-.49-.57-.79-.09-.5-.03-1.02-.03-1.66h7.81c.47,1.96.42,2.05-1.59,2.89v4.41h6.53c0-1.36.02-2.68-.02-3.99,0-.22-.29-.6-.47-.62-2-.15-1.27-1.55-1.38-2.72h7.99Z"/>
    <path class="cls-3" d="M792.11,156.15q2.02.75,1.66,2.88h-7.88c0-.59-.1-1.12.03-1.59.1-.35.45-.85.75-.89.94-.15,1.13-.64,1.11-1.5-.04-3.22-.04-6.45,0-9.67.01-.89-.14-1.44-1.17-1.57-1.25-.15-.64-1.21-.66-1.87,0-.25.62-.74.97-.74,3.01-.03,6.02-.06,9.02.09,2.47.12,4.58,1.1,5.42,3.63.82,2.45.08,4.55-1.84,6.27-.25.22-.39.81-.28,1.14.35,1.1.83,2.16,1.29,3.23.11.26.28.56.51.7,1.48.92,1.49.91,1.21,2.86-1.46,0-2.95.04-4.43-.04-.28-.02-.67-.46-.79-.79-.52-1.36-1.03-2.74-1.41-4.14-.31-1.18-.89-1.76-2.15-1.54-.41.07-.84.01-1.34.01v3.53ZM792.03,149.3c1.22,0,2.25.06,3.27-.01,1.29-.09,2.06-.93,2.11-2.16.05-1.28-.66-2.34-1.88-2.54-.92-.15-1.88-.15-2.82-.1-.24.01-.64.44-.65.69-.07,1.32-.03,2.64-.03,4.13Z"/>
    <path class="cls-3" d="M550.01,144.19q-1.86-.61-1.69-2.91c.42-.03.87-.08,1.32-.08,2.15,0,4.3.07,6.45-.02,5.55-.22,9.12,3.94,8.79,9.56-.27,4.54-2.83,7.77-6.71,8.26-1.91.24-3.86.11-5.8.13-1.32.01-2.65,0-3.94,0q-.46-2.34,1.58-2.96v-11.98ZM554.49,155.81c3.87.48,5.59-.81,6.04-4.48.11-.88.07-1.81-.06-2.69-.47-3.4-2.51-4.78-5.98-4.05v11.21Z"/>
    <path class="cls-3" d="M767.75,159.04h-6.85c.13-1.03-.73-2.26.95-2.65q-.08-1.97-1.9-1.97c-.9,0-1.81,0-2.71,0q-1.75,0-1.91,1.94c1.72.29.79,1.61,1.04,2.65h-6.62v-2.28c1.16,0,1.41-.9,1.72-1.81,1.46-4.22,2.97-8.43,4.39-12.66.29-.85.7-1.1,1.56-1.1,3.49,0,3.49-.03,4.64,3.27,1.28,3.65,2.54,7.3,3.88,10.93.17.47.84.74,1.05,1.21.34.72.48,1.53.76,2.46ZM760.55,151.34c-.65-2.01-1.26-3.92-1.98-6.16-.71,2.24-1.31,4.15-1.94,6.16h3.93Z"/>
    <path class="cls-3" d="M634.82,159.05h-6.78c.13-1.02-.86-2.29,1.06-2.68-.19-.66-.37-1.27-.57-1.94-1.72,0-3.4,0-5.07,0-1.35,0-.67,1.24-1.39,1.84,1.96.42,1.16,1.69,1.29,2.77h-6.56v-2.24c.09.06.18.12.28.18.46-.61,1.09-1.15,1.34-1.84,1.54-4.23,3.02-8.49,4.47-12.75.29-.85.65-1.22,1.61-1.22,3.47.02,3.47-.02,4.64,3.29,1.28,3.64,2.54,7.29,3.87,10.92.17.47.84.74,1.06,1.21.34.72.48,1.54.76,2.46ZM625.77,145.6c-.09,0-.18,0-.27-.01-.59,1.89-1.18,3.78-1.78,5.72h3.89c-.64-2-1.24-3.85-1.84-5.7Z"/>
    <path class="cls-3" d="M650.85,143.76v-2.48h7.73c.45,2.12.38,2.28-1.37,2.77,1.1,3.46,2.2,6.92,3.3,10.37.08,0,.16,0,.25,0,1.06-3.45,2.12-6.89,3.18-10.34q-2.1-.62-1.69-2.79h7.31c0,.55.11,1.09-.03,1.54-.12.37-.53.89-.85.92-.75.08-1,.44-1.21,1.08-1.42,4.37-2.89,8.72-4.3,13.1-.27.84-.59,1.24-1.58,1.23-3.48-.04-3.48.01-4.69-3.25-1.27-3.42-2.54-6.84-3.79-10.27-.39-1.06-.62-2.25-2.27-1.87Z"/>
    <path class="cls-3" d="M503.33,141.32c0,1.14.74,2.53-1.35,2.6-.24,0-.53.7-.67,1.12-1.41,4.23-2.83,8.46-4.17,12.72-.32,1.01-.74,1.42-1.86,1.4-3.28-.07-3.29-.02-4.42-3.1-1.36-3.7-2.72-7.41-4.1-11.11-.14-.38-.4-1.02-.63-1.02-2.07-.08-1.35-1.47-1.36-2.64h7.74c.47,2.05.38,2.26-1.38,2.77,1.09,3.42,2.17,6.84,3.26,10.26.09.02.19.04.28.05,1.06-3.43,2.11-6.87,3.17-10.31q-2.04-.56-1.8-2.75h7.3Z"/>
    <path class="cls-3" d="M594.78,156.23c.57.16,1.1.3,1.69.46v2.36h-7.83v-2.35c.56-.17,1.12-.34,1.66-.5.24-1.76.06-3.32-.91-4.85-1.34-2.1-2.46-4.33-3.7-6.5-.2-.36-.46-.79-.81-.94-1.71-.74-1.72-.72-1.38-2.64h7.51c-.15,1,.72,2.2-1.02,2.72.9,1.81,1.8,3.59,2.77,5.54,1.12-1.94,2.15-3.71,3.19-5.51-2-.51-2.01-.52-1.61-2.75h7.26v2.42c-1.93-.27-2.38,1.31-3.12,2.58-.86,1.49-1.62,3.05-2.61,4.45-1.18,1.67-1.4,3.44-1.1,5.5Z"/>
    <path class="cls-3" d="M527.81,156.21c.64.17,1.17.32,1.77.48v2.35h-7.81v-2.34c.52-.16,1.08-.33,1.68-.51v-11.97q-1.89-.82-1.69-2.92h7.89c0,.54.11,1.08-.03,1.54-.12.38-.46.82-.82.97-.52.23-1.01.26-1,1.05.04,3.73.02,7.47.02,11.34Z"/>
    <path class="cls-3" d="M693.93,156.15q2.04.72,1.67,2.89h-7.84c0-.53-.1-1.06.03-1.51.12-.39.46-.91.79-.98.85-.19,1.06-.61,1.05-1.43-.04-3.27-.04-6.54,0-9.81.01-.86-.16-1.35-1.12-1.49-.89-.13-.95-.52-.6-2.53h7.64c.48,2,.44,2.07-1.62,2.95v11.91Z"/>
    <path class="cls-3" d="M343.77,133.98c-.16-.53-.31-1.01-.45-1.47,2.29-1.72,2.74-3.63,1.46-6.03-.5-.94-1.25-1.58-2.37-1.44-1.13.14-1.55.99-1.64,2.01-.14,1.58-.23,3.17-.35,4.75-.18,2.35-1.26,3.73-3.2,4.11-1.94.38-3.82-.68-4.81-2.65-.87-1.73-.94-3.57-.71-5.41.23-1.88,1.67-3.23,3.58-3.57.46.78.72,1.36-.38,2.03-2.34,1.42-2.13,6.18.24,7.6,1.27.76,2.88.24,3.16-1.23.35-1.8.41-3.66.58-5.49.2-2.1,1.01-3.28,2.59-3.75,1.56-.47,2.95-.11,3.96,1.14,1.61,2,2.1,4.31,1.35,6.78-.42,1.38-1.43,2.28-3,2.64Z"/>
    <path class="cls-3" d="M348.54,163.03c-.38-.47-.68-.83-1.07-1.32,1.45-1.15,2.86-2.26,4.27-3.37.47-.37.95-.74,1.41-1.13,1.23-1.05,1.43-1.81.76-2.87-.74-1.19-2.13-1.66-3.35-.93-1.21.72-2.31,1.63-3.45,2.47-.85.64-1.69,1.3-2.58,1.99-.37-.45-.66-.81-1.06-1.3,1.42-1.13,2.82-2.24,4.21-3.35.54-.43,1.08-.85,1.6-1.31.84-.74,1.36-1.57.66-2.7-.68-1.08-1.96-1.57-3.13-1.03-.81.37-1.56.89-2.28,1.42-1.34.99-2.64,2.03-4.03,3.1-.37-.47-.68-.85-1.06-1.33,2.87-2.25,5.66-4.44,8.5-6.66.35.4.63.72.94,1.07-.27.3-.52.58-.65.72,1.02.66,2.13,1.18,2.99,1.97.95.88,1,2.13.51,3.5.5.07.91.1,1.3.2,1.5.37,2.48,1.32,2.91,2.8.41,1.41-.29,2.43-1.3,3.25-1.97,1.6-3.98,3.14-6.09,4.8Z"/>
    <path class="cls-3" d="M373.53,86.93c-1.23.51-2.17.61-2.99-.46-.59-.78-1.29-1.47-2.01-2.27-.79.87-1.38,1.53-2,2.21.48.51.91.97,1.56,1.66-1.41,0-2.58.2-3.64-.06-.95-.23-.61-1.08-.13-1.64.94-1.1,1.93-2.17,3-3.37-.5-.48-.93-.89-1.48-1.41-1.46,1.56-2.86,3.04-4.31,4.58-.43-.36-.78-.66-1.43-1.21,3.56-3.36,7.06-6.66,10.68-10.07.54.67.84,1.05,1.24,1.54-.41.29-.76.53-1.23.86,1.92,2.48,3.74,4.83,5.62,7.25-1.37.49-2.25.21-3.02-.88-1.22-1.71-2.56-3.34-3.97-5.16-.75.58-1.43,1.12-2.27,1.77,2.18,2.27,4.25,4.41,6.39,6.64Z"/>
    <path class="cls-3" d="M415.52,65.75c-.76-1.72-1.41-3.19-2.21-4.99,1.72.35,2.64.93,2.94,2.28.4,1.8.8,3.6,1.28,5.38.18.68.56,1.3.85,1.95.11-.02.22-.05.33-.07-.13.4-.27.79-.42,1.27-.49-.08-.93-.15-1.5-.24-1.04,2.82-2.07,5.62-3.1,8.44-1.63-1-1.14-2.34-.59-3.74-.55-.05-.97-.06-1.38-.13-1.44-.25-2.39-1.58-2.17-3.02.17-1.16,1.81-2.28,3.05-1.95.33.09.52.73.86,1.26-.9.17-1.52.2-2.05.42-.32.13-.5.58-.75.88.31.24.59.64.92.69.69.11,1.41.03,2.18.03.31-.83.62-1.63.9-2.44.12-.36.19-.73.32-1.22-1.69-.49-3.32-.97-5.04-1.47.13-.49.24-.93.4-1.56,2.03.55,3.98,1.09,5.94,1.62.08-.12.16-.23.23-.35-1.09-.84-2.09-1.84-3.29-2.46-1.13-.59-1.51-1.28-1.13-2.71,1.09.67,2.12,1.31,3.42,2.11Z"/>
    <path class="cls-3" d="M399.96,69.9c.09-1.88-.32-2.26-2.28-2.15-1.15.07-2.3.17-3.52.26-.07-.55-.13-.96-.21-1.61,1.46-.1,2.86-.26,4.25-.27,1.28-.01,2.56.16,3.85.2,1.33.05,1.33.03,1.2,1.49-.17.04-.37.1-.57.14-.21.04-.42.05-.86.11,0,1.05,0,2.1,0,3.16,0,1.59-.04,3.18.01,4.77.02.47.17,1.02.46,1.39.96,1.25,1.14,2.52.36,3.5-.69.88-2.36,1.11-3.56.41-1.6-.94-2.5-2.48-3.43-3.98.1-.1.2-.2.29-.29.33.31.68.6.99.93.66.67,1.21,1.49,1.98,2,.55.36,1.37.46,2.05.42.37-.03.82-.55,1.02-.95.11-.21-.17-.88-.39-.94-.39-.11-.87.04-1.29.18-.26.09-.47.35-.85.66-.23-.5-.71-1.18-.59-1.32.45-.51,1.11-.83,1.74-1.25-1.35-1.39-.14-3.36-.82-5.24-.83.05-1.71.08-2.59.17-1.06.1-1.37.8-.94,1.64.57,1.13,1.35,2.16,2.08,3.3-.13.04-.47.21-.54.13-1.33-1.39-2.86-2.66-2.97-4.8-.08-1.48.41-2.02,1.91-2.12.94-.06,1.88-.12,2.82-.16.1,0,.21.14.38.26Z"/>
    <path class="cls-3" d="M419.55,171.23c-.56-1.69-1.06-3.22-1.6-4.85.52-.19.99-.37,1.57-.58,1.64,4.76,3.24,9.44,4.87,14.16-.8.41-1.49.95-1.82-.14-.82.67-1.53,1.57-2.45,1.9-.89.33-2.07.32-2.98.03-3.02-.95-4.82-5.9-3.28-8.68,1.02-1.84,2.71-2.42,5.69-1.84ZM421.6,177.82c-.02-1.8-.56-3.27-1.62-4.53-.75-.89-1.73-1.27-2.88-.97-1.1.28-1.78,1.05-1.97,2.15-.34,2.05.37,3.81,1.75,5.29.84.89,1.94,1.07,3.08.58,1.16-.5,1.61-1.47,1.64-2.52Z"/>
    <path class="cls-3" d="M409.72,168.51c.16.82.27,1.36.41,2.06-.71.1-1.35.18-2.1.28-1.46,4.15-2.95,8.4-4.43,12.65-.26.76-.49,1.36-1.54,1.39-1.06.03-1.17-.66-1.45-1.31-1.91-4.45-3.8-8.91-5.71-13.37,1.81-.5,1.87-.47,2.49,1.11,1.51,3.83,3.02,7.65,4.68,11.84.28-.73.45-1.13.59-1.55,1.1-3.34,2.36-6.64,3.23-10.05.55-2.16,2.2-2.29,3.83-3.05Z"/>
    <path class="cls-3" d="M384,183.24c-.8-.06-1.67-.24-1.51-1.46-1.58,0-3.14.26-4.57-.06-1.98-.44-2.77-1.93-2.39-3.65.36-1.65,1.77-2.55,3.75-2.37,1.07.1,2.13.27,3.2.35.62.04,1.42.46,1.71-.56.27-.92.09-1.69-.74-2.26-1.67-1.15-3.17-1-4.77.55-.41-.19-.86-.41-1.33-.63.65-1.46,1.76-2.09,3.2-2.1.8,0,1.64.12,2.41.34,2.9.85,3.56,2.09,2.8,4.98-.6,2.27-1.17,4.55-1.76,6.85ZM383.46,177.46c-1.53-.1-2.99-.34-4.42-.24-.59.04-1.36.69-1.65,1.27-.39.76.12,1.45.88,1.89,2.41,1.4,4.85.11,5.19-2.92Z"/>
    <path class="cls-3" d="M356.1,159.69c1.14-1.32,2.3-1.55,3.48-.98.95.46,1.91,1.01,2.66,1.74,1.94,1.88,1.95,3.15.24,5.22-1.52,1.85-3.04,3.7-4.62,5.62-.78-.32-1.27-.96-.66-2.1-.51-.11-.98-.1-1.34-.29-1.14-.63-2.39-1.17-3.3-2.04-1.15-1.11-1.09-2.76-.2-3.87.89-1.1,2.46-1.48,3.85-.78,1.19.59,2.28,1.37,3.45,1.99.43.23,1.33.45,1.41.32.36-.62.8-1.41.69-2.05-.28-1.58-2.45-2.6-4.04-2.27-.49.1-1.09-.32-1.64-.5ZM359.85,165.84c-1.27-.71-2.53-1.43-3.81-2.11-.82-.44-1.61-.33-2.18.44-.55.75-.44,1.52.12,2.25,1.64,2.14,4.26,1.93,5.88-.58Z"/>
    <path class="cls-3" d="M466.39,132.85c-.65.67-1.19,1.22-1.64,1.69-.14,1.44-.09,3.03-.5,4.49-.49,1.74-1.95,2.49-3.46,2.19-1.62-.33-2.51-1.53-2.4-3.44.07-1.28.33-2.55.42-3.84.03-.49-.13-1.39-.29-1.41-.7-.09-1.61-.17-2.13.2-1.34.93-1.4,3.28-.46,4.6.29.41.11,1.14.15,1.72l-.58.22c-.51-.68-1.17-1.29-1.49-2.05-.73-1.73.19-5.23,1.76-6.21.69-.44,1.8-.5,2.65-.35,1.38.24,2.7.82,4.06,1.21,1.15.33,2.32.59,3.91.99ZM460.3,133.21c-.19,1.51-.5,2.91-.47,4.3.01.6.59,1.47,1.14,1.71.46.2,1.46-.12,1.84-.55.9-1.02,1.04-2.33.47-3.6-.54-1.19-1.53-1.77-2.98-1.85Z"/>
    <path class="cls-3" d="M444.69,167.88c-.79.17-1.55.32-2.25.47-.76,1.03-1.46,2.33-2.48,3.29-1.45,1.36-3.23,1.29-4.41.13-1.18-1.16-1.22-2.9-.02-4.44.74-.95,1.62-1.79,2.35-2.74.29-.38.61-1.26.5-1.33-.61-.43-1.4-1.04-2.03-.95-1.99.29-2.95,2-2.63,4.27-.38.23-.78.47-1.23.74-.72-1.1-.85-2.2-.17-3.27.52-.82,1.1-1.67,1.84-2.28,2.43-2.01,3.86-1.82,5.87.6,1.45,1.74,2.93,3.47,4.66,5.51ZM439.58,164.74c-.95,1.14-1.85,2.17-2.7,3.24-.63.79-.77,1.66-.01,2.44.75.77,1.62.62,2.46.09,2.09-1.34,2.23-3.64.25-5.76Z"/>
    <path class="cls-3" d="M428.49,78c-2,2.56-3.8,4.86-5.65,7.23-1.1-1.38-.58-2.48.51-3.59-.47-.23-.85-.38-1.18-.6-1.11-.7-1.55-2.23-.99-3.41.53-1.12,1.53-1.51,2.8-1.18,1.01.26,1.16.87.86,1.82-.65-.1-1.29-.31-1.9-.25-.42.04-.8.45-1.2.69.33.3.61.76.99.86,1.11.32,2.2.41,2.91-.86.33-.59.82-1.09,1.38-1.81-.75-.54-1.44-1.07-2.16-1.56-.74-.5-1.51-.97-2.33-1.49.27-.46.5-.85.82-1.41,1.14.93,2.76,1.14,3.41,2.75.15.02.65-.06.91.15,2.5,2.01,4.96,4.07,7.54,6.2-.47.55-.8.92-1.15,1.33-1.85-1.63-3.64-3.2-5.55-4.88Z"/>
    <path class="cls-3" d="M444.4,145.25c.31-.55.53-.95.83-1.48,1.54.83,3.02,1.63,4.56,2.45.04-.87-.02-1.65.13-2.39.52-2.69,2.77-3.88,5.21-2.68,2.23,1.1,4.37,2.37,6.69,3.64-.27.5-.5.93-.83,1.52-1.63-.9-3.19-1.76-4.76-2.62-.45-.25-.9-.5-1.36-.73-1.55-.78-2.6-.58-3.37.63-.88,1.37-.66,2.98.7,3.86,1.73,1.12,3.55,2.09,5.33,3.13.25.15.49.32.81.53-.27.48-.5.91-.79,1.44-4.4-2.44-8.7-4.83-13.13-7.29Z"/>
    <path class="cls-3" d="M441.7,94.52c-.75.42-1.46.8-2.3,1.27.38.77.74,1.48,1.14,2.28-.48.28-.95.55-1.52.89-.45-.71-.87-1.37-1.29-2.04-.49.08-.93.16-1.85.32.45-1.34.77-2.41,1.17-3.44.07-.19.65-.4.73-.33,1.3,1.26,2-.25,3.14-.56-.53-.86-.99-1.6-1.51-2.43-2.61,1.62-5.11,3.18-7.7,4.78-.36-1.3-.13-2.16,1.05-2.83,1.87-1.05,3.65-2.25,5.52-3.43-.13-.43-.26-.82-.4-1.27.4-.25.79-.49,1.34-.83,1.65,2.74,3.25,5.41,4.9,8.17-.55.33-.93.57-1.39.85-.34-.46-.64-.86-1.03-1.4Z"/>
    <path class="cls-3" d="M377.12,75.19c-.28-.51-.5-.9-.79-1.41-1.26.68-2.46,1.33-3.74,2.03-.27-.45-.51-.83-.85-1.38,1.67-.95,3.28-1.87,5.14-2.93-1.74-.79-3.07-1.76-4.91-.99-.49.2-1.32-.4-2.14-.69,2.2-1.69,8.23-.13,9.32,2.23-.42.31-.85.63-1.34.99.49.93.97,1.83,1.51,2.86-.57.33-1.11.66-1.67.95-.89.46-1.53,1.05-1,2.13.4.81,1.35.97,2.5.44-.03-.14-.03-.31-.1-.45-.4-.83-.16-1.58.66-1.72.48-.09,1.44.41,1.55.81.29,1.08.63,2.02,1.86,2.45-.05.13-.1.26-.16.39-.44.02-.98.21-1.29.02-.75-.46-1.39-.36-2.18-.14-1.87.52-3.7-.47-4.4-2.24-.53-1.33-.33-1.92.9-2.68.33-.2.65-.4,1.11-.69Z"/>
    <path class="cls-3" d="M340.3,147c-2.61.05-4.78-2.27-4.83-5.15-.05-2.89,2.86-5.41,6.33-5.49,2.7-.06,4.97,2.27,5,5.15.04,2.92-2.92,5.43-6.5,5.5ZM340.11,145.25c1.68-.02,3.1-.64,4.26-1.85.91-.95,1.21-2.05.69-3.31-.54-1.29-1.5-1.96-2.89-1.97-1.73-.01-3.18.67-4.36,1.9-.95.99-1.13,2.22-.56,3.45.57,1.22,1.52,1.82,2.87,1.78Z"/>
    <path class="cls-3" d="M360.01,85.58c.59.41.94.65,1.34.93-.21.45-.41.86-.66,1.38,2.38,1.75,4.76,3.49,7.26,5.33-1.08.72-1.92.92-2.97.09-1.71-1.37-3.54-2.59-5.47-3.99-.48.74-.93,1.44-1.44,2.23,2.64,1.6,5.16,3.13,7.78,4.72-.95.85-1.77,1.12-2.9.38-1.83-1.21-3.74-2.27-5.82-3.51-.21.37-.41.74-.64,1.13-.58-.36-.96-.6-1.52-.96,1.68-2.58,3.32-5.08,5.04-7.72Z"/>
    <path class="cls-3" d="M363.73,178.43c2.36,1.16,4.04.16,4.35-2.44.38-3.28.81-6.55,1.23-9.91,1.26.23,1.75.76,1.52,2.01-.44,2.44-.75,4.91-.86,7.55.49-.42.98-.84,1.46-1.27,1.4-1.27,2.84-2.5,4.18-3.83.78-.78,1.43-.79,2.23.03-.17.21-.32.45-.52.63-3.09,2.73-6.13,5.51-9.3,8.15-.83.69-2.01,1.25-3.07,1.33-1.52.12-2-.91-1.22-2.26Z"/>
    <path class="cls-3" d="M421.84,169.56c.63-.35,1.1-.61,1.63-.9,2.2,2.01,4.38,4,6.87,6.27-.16-1.29-.27-2.22-.4-3.15-.23-1.61-.4-3.24-.75-4.83-.23-1.08.08-1.64,1.32-1.89.23,1.54.47,3.08.68,4.62.37,2.76.78,5.53,1.02,8.3.09,1.07.01,2.28-.43,3.23-.68,1.47-1.98,1.43-2.74.12,2.44-1.91,2.43-3.37-.02-5.48-2.37-2.04-4.71-4.11-7.19-6.28Z"/>
    <path class="cls-3" d="M387.79,67.55c.16.59.27.99.39,1.42-.47.21-.85.38-1.35.6.8,2.85,1.6,5.68,2.4,8.52-1.58.11-1.74-.02-2.58-2.12-.41.18-.81.39-1.24.53-1.15.37-2.13.01-2.9-.86-.71-.8-.72-1.72-.22-2.64.73-1.34,1.61-1.43,2.66-.3-.5.47-1.08.87-1.45,1.42-.21.3-.06.85-.08,1.28.4-.04.86.03,1.18-.15,1.1-.63,1.45-1.67,1.09-2.93-.18-.62-.36-1.24-.54-1.85-.04-.12-.1-.23-.21-.45-1.62.64-3.24,1.27-4.94,1.93-.23-.52-.42-.93-.67-1.51,1.39-.42,2.52-1.32,4.08-1.3,1.04-1.18,2.76-1.06,4.39-1.59Z"/>
    <path class="cls-3" d="M426.93,88.67c-1.4-1.93-.48-5.89,1.37-6.74,1.12-.52,2.12-.14,2.45,1.02.18.61.27,1.13,1.08,1.13.23,0,.67.33.67.49-.04,1.06.99,1.14,1.52,1.62.26.23,1.07.09,1.45-.16.2-.13.1-.88-.02-1.3-.1-.34-.45-.62-.78-1.05.37-.32.74-.64,1.22-1.06.98,1.19,1.93,2.34,2.95,3.59-.41.35-.79.68-1.2,1.02-.29-.25-.55-.47-.88-.75-1.05,1.03-2.15,2.04-3.92,1.26-.17,1.77,1.24,1.9,2.46,2.59-.7.4-1.51,1.13-1.8.97-.78-.46-1.64-1.2-1.9-2.01-.24-.73.3-1.7.44-2.57.05-.33.02-.91-.14-.97-.32-.13-.84-.12-1.11.07-.44.31-.76.81-1.16,1.26-.75-.76-.83-1.33-.13-2.06.27-.29.19-.91.27-1.39-.57.08-1.49-.02-1.65.28-.48.92-.71,1.98-.97,3.01-.13.51-.14,1.05-.23,1.75Z"/>
    <path class="cls-3" d="M438.54,158.74c.6-1.33,1.34-1.36,2.43-.84,2.2,1.06,4.47,1.97,6.96,3.05-.17-.5-.24-.79-.37-1.06-1.01-1.99-1.97-4.01-3.06-5.95-.58-1.03-.5-1.73.69-2.36.9,1.83,1.81,3.66,2.71,5.49.68,1.39,1.4,2.76,2,4.18.14.32,0,.93-.25,1.19-.25.26-.86.45-1.18.32-3.31-1.3-6.6-2.67-9.94-4.03Z"/>
    <path class="cls-3" d="M335.35,93.72c.21-.5.35-.86.56-1.36,1.06.39,2.08.76,3.18,1.16.01-2.14-2.8-3.68-1.06-6.23.43.92.91,1.71,1.17,2.57.36,1.14,1.03,1.27,2.06,1.03,1.36-.33,2.75-.55,4.24-.83-.14,1.3-.62,1.93-1.85,2-1.02.06-2.02.31-3.02.48,0,1.91,1.49,2.28,2.85,2.85-.18.47-.35.89-.55,1.42-2.57-1.05-5.05-2.05-7.58-3.08Z"/>
    <path class="cls-3" d="M374.9,61.97c.54-.05,1.09-.05,1.62-.15.59-.11,1.37-.15,1.67-.54.29-.36.06-1.13.06-1.76-.32.05-.38.04-.4.07-1.41,1.42-2.1,1.64-3.19,1.02-1.3-.74-2.12-2.61-1.59-4.02.22-.58.76-1.21,1.31-1.45.95-.42,2.03-.55,3.34-.86.65,1.94,1.4,4.11,2.1,6.3.08.26,0,.61-.1.87-.47,1.12-2.9,2.12-4.02,1.63-.35-.15-.62-.52-.92-.78.05-.11.09-.22.14-.33ZM377.4,58.52c-.03-1.63-.89-2.77-1.75-2.66-.84.1-1.26.63-1.23,1.5.04,1.18.9,2.37,1.72,2.14.56-.15.99-.76,1.25-.98Z"/>
    <path class="cls-3" d="M397.73,56.19c-1.1.39-1.73.13-2.18-.86-.15-.34-.75-.58-1.18-.66-.49-.09-1.06-.06-1.52.12-.48.19-1.14.54-1.24.95-.27,1.08-.86,1.24-1.9.98.8-2.59,1.56-5.16,2.4-7.71.27-.82,1.66-.95,2.05-.19,1.23,2.43,2.39,4.91,3.59,7.37ZM394.65,53.29c-.5-1.06-.92-1.94-1.47-3.12-.37,1.31-.64,2.24-.96,3.36.86-.08,1.56-.15,2.44-.23Z"/>
    <path class="cls-3" d="M357.47,73.74c-1.25-.67-2.25-1.21-3.24-1.74-.07.07-.14.15-.21.22.44.75.96,1.48,1.29,2.28.16.37.11.98-.11,1.29-.16.22-.84.25-1.17.1-1.56-.71-3.07-1.51-4.65-2.3.43-.87.92-1.15,1.79-.59.71.46,1.5.8,2.49,1.02-.47-.81-.99-1.6-1.38-2.45-.15-.33-.14-.94.07-1.16.21-.22.83-.27,1.15-.13.85.37,1.64.88,2.68,1.17-.43-.8-.82-1.62-1.31-2.38-.46-.73-.44-1.26.58-1.7.86,1.6,1.79,3.19,2.55,4.85.15.33-.32.95-.53,1.52Z"/>
    <path class="cls-3" d="M369.11,58.23c-.43-.88-.8-1.63-1.2-2.46.42-.23.77-.43,1.21-.68,1.32,2.39,2.6,4.7,3.86,6.97-.08.15-.12.28-.17.29-1.11.17-1.84.9-2.65,1.6-.36.31-1.16.31-1.68.17-1.39-.37-2.58-2.3-2.43-3.72.14-1.29.94-1.89,3.07-2.17ZM370.74,61.95c-.05-1.59-1.18-3-1.99-2.73-.51.17-1.09.85-1.17,1.37-.16,1.05,1.12,2.47,1.96,2.26.53-.14.95-.7,1.2-.9Z"/>
    <path class="cls-3" d="M457.24,122.13c.48.29.88.53,1.26.76-.76,2.47-.32,3.29,2.17,3.93,1,.26,2.02.4,3.03.59,1,.19,2.01.38,3.15.59-.1.57-.19,1.06-.3,1.67-3.56-.63-7.04-1.25-10.6-1.88.08-.5.14-.91.21-1.38.4-.04.76-.07,1.31-.12-1.29-1.35-1.56-2.67-.22-4.16Z"/>
    <path class="cls-3" d="M435.68,68.52c-.66-.24-1.13-.4-1.81-.64,1.79-2.31,3.43-4.42,5.12-6.6.42.32.74.57,1.11.86-.53.75-1.02,1.44-1.42,2,.79.57,1.6,1.02,2.21,1.66.28.3.27.98.22,1.46-.17,1.53-1.63,2.95-3.04,3.05-1.25.09-1.91-.44-2.39-1.8ZM438.95,65.35c-1.36-.05-2.51,1.19-2.52,2.25-.01.81.37,1.33,1.2,1.38.85.05,2.2-1.31,2.1-2.28-.06-.54-.59-1.04-.78-1.34Z"/>
    <path class="cls-3" d="M357.33,95.1c.53.19.95.35,1.47.54-.41,1.17-.79,2.24-1.29,3.65.78-.6,1.24-1.01,1.76-1.35,1.19-.8,2.09-.62,2.56.7.38,1.06.96,1.27,2.16.85-.19.53-.24,1.08-.42,1.12-1.04.26-1.68.91-2.23,1.78-.16.25-1.05.39-1.18.24-.29-.37-.5-.97-.42-1.42.07-.38.66-.64.88-1.03.19-.32.19-.75.27-1.14-.37.01-.82-.1-1.09.07-.73.45-1.32,1.13-2.08,1.5-.5.25-1.19.14-1.79.19-.05-.56-.26-1.17-.11-1.67.41-1.34.97-2.64,1.5-4.04Z"/>
    <path class="cls-3" d="M443.06,97.91c-.08-.46-.14-.83-.22-1.29.45-.19.87-.36,1.41-.58.59,1.46,1.15,2.83,1.73,4.26-.5.22-.93.42-1.4.63-.25-.42-.48-.81-.78-1.32-2.75,1.1-5.48,2.19-8.23,3.29-.2-1.61-.04-1.91,1.3-2.46,2.03-.83,4.05-1.66,6.2-2.54Z"/>
    <path class="cls-3" d="M401.87,53.73c-.01-1.9,1.16-3.21,2.92-3.25,1.76-.04,3.14,1.3,3.14,3.06,0,1.85-1.24,3.13-3.03,3.12-1.87,0-3.01-1.12-3.03-2.93ZM403.35,53.59c-.03,1.1.54,1.88,1.42,1.94.88.05,1.61-.77,1.66-1.9.05-1.05-.58-1.88-1.45-1.93-.93-.05-1.6.73-1.64,1.89Z"/>
    <path class="cls-3" d="M449.7,84.58c-.73-.88-1.44-1.67-2.07-2.53-.58-.8-.71-1.69.1-2.44.82-.75,1.65-.54,2.41.15.32.29.58.67.95.86.37.19.83.18,1.25.25-.17-.47-.26-1-.54-1.4-.19-.28-.66-.35-.93-.6-.16-.15-.16-.46-.24-.7,1.32-.36,2.13.14,2.86,1.66.49,1.03.43,1.88-.62,2.55-1.11.72-2.18,1.5-3.18,2.19ZM451.22,81.51c-.96-.34-1.68-.6-2.4-.86,0,.46-.17,1.06.06,1.35.62.79,1.33.47,2.34-.49Z"/>
    <path class="cls-3" d="M352.11,78.99c0,1.62-1.44,3.11-3.01,3.11-1.62,0-3.2-1.51-3.23-3.09-.03-1.68,1.42-3.13,3.11-3.13,1.71,0,3.13,1.41,3.13,3.1ZM348.18,77.26c-.23.34-.83.87-.94,1.48-.17.93,1.16,1.97,2.18,1.9.86-.06,1.34-.53,1.36-1.4.03-.97-1.1-2.01-2.61-1.99Z"/>
    <path class="cls-3" d="M365.53,63.6c-1.04.75-2.01,1.45-3.24,2.34.62.3,1.07.72,1.44.65.4-.07.75-.56,1.08-.91.36-.37.67-.79,1.16-1.39.34,1.9-.45,3.07-2.04,3.5-1.36.37-2.85-.57-3.48-2.19-.59-1.52-.07-2.88,1.35-3.57,1.35-.65,2.66-.13,3.71,1.57ZM363.91,63.72c-.67-.71-1.31-1.06-1.9-.45-.32.34-.29,1.01-.42,1.54.14.06.29.12.43.19.58-.4,1.17-.79,1.89-1.28Z"/>
    <path class="cls-3" d="M444.72,74.21c-.85-.95-1.65-1.84-2.7-3.02-.19.74-.5,1.25-.37,1.6.14.38.68.62,1.06.9.43.3.88.57,1.51.97-1.74.62-3.13-.04-3.77-1.49-.56-1.26.18-2.94,1.65-3.79,1.32-.77,2.79-.48,3.66.73.92,1.28.64,2.62-1.03,4.12ZM444.49,72.23c.14.01.28.02.42.03-.08-.57.03-1.28-.28-1.68-.49-.64-1.16-.43-1.83.24.61.51,1.14.96,1.68,1.41Z"/>
    <path class="cls-3" d="M385.37,55.21c-1.2.35-2.34.69-3.84,1.13.55.49.89,1.01,1.29,1.08.38.06.83-.37,1.26-.57.44-.21.87-.42,1.46-.7-.25,1.73-1.36,2.57-2.94,2.49-1.43-.07-2.62-1.54-2.65-3.27-.02-1.64.93-2.75,2.49-2.88,1.59-.13,2.59.75,2.93,2.72ZM383.81,54.75c-.31-.82-.7-1.43-1.61-1.07-.74.29-.98.85-.52,1.69.72-.21,1.4-.4,2.12-.62Z"/>
    <path class="cls-3" d="M456.66,93c-.53-1.09-1.07-2.2-1.78-3.65-.39.63-.84,1.04-.83,1.45,0,.39.48.78.76,1.17.28.39.58.77.98,1.3-1.72.09-2.74-.81-2.98-2.31-.24-1.51.95-2.94,2.76-3.31,1.49-.31,2.82.45,3.24,1.84.45,1.48-.3,2.75-2.15,3.51ZM456.74,91.23c.21,0,.42.02.63.03.08-.57.39-1.23.2-1.7-.3-.74-1.02-.73-1.73-.29.32.68.61,1.32.9,1.96Z"/>
    <path class="cls-3" d="M421.56,57.86c-1.13-.35-2.26-.7-3.79-1.17.18.72.17,1.3.45,1.61.24.26.82.25,1.25.28.53.04,1.07.01,1.79.01-1.04,1.46-2.44,1.59-3.87.6-1.2-.82-1.38-2.59-.43-4.17.85-1.41,2.36-1.81,3.77-1.01,1.29.74,1.63,2.24.83,3.84ZM418.29,55.92c.81.26,1.51.48,2.24.72.33-.97.04-1.56-.68-1.8-.74-.24-1.28.11-1.56,1.08Z"/>
    <path class="cls-3" d="M346.8,87.81c-.27.45-.47.77-.74,1.22-1.67-.97-3.29-1.91-4.85-2.81.54-1.2.97-2.34,1.56-3.4.45-.82,1.28-1.03,2.12-.6,1.29.66,2.54,1.39,3.89,2.14-.28.47-.49.83-.74,1.25-1.05-.59-2.01-1.14-2.99-1.66-.63-.34-1.31-.61-1.8.19-.49.79-.09,1.41.58,1.86.93.61,1.89,1.17,2.96,1.83Z"/>
    <path class="cls-3" d="M410.5,57.41c-.49-.14-.89-.25-1.36-.38.44-1.9.87-3.72,1.35-5.79.58.31,1.01.54,1.68.9.12-.02.57-.16,1.03-.19,1.42-.07,2.24.72,2.05,2.12-.18,1.35-.54,2.68-.85,4.12-.5-.06-.91-.11-1.44-.18.26-1.18.52-2.25.73-3.34.13-.68.28-1.45-.64-1.71-.94-.26-1.45.28-1.68,1.14-.28,1.07-.56,2.14-.86,3.31Z"/>
    <path class="cls-3" d="M455.48,155.46c-.37.53-.66.93-1,1.41-2.97-2.08-5.84-4.1-8.84-6.2.33-.49.62-.93.96-1.44,2.96,2.08,5.84,4.1,8.87,6.23Z"/>
    <path class="cls-3" d="M362.09,174.07c-.52-.35-.93-.62-1.43-.96,1.98-3.06,3.91-6.04,5.87-9.08.49.31.91.58,1.46.93-1.98,3.05-3.92,6.05-5.9,9.11Z"/>
    <path class="cls-3" d="M456.28,94.81c0,.52,0,1.05,0,1.57,0,.41-.11.88.05,1.22.15.32.59.51.9.75.13-.33.36-.66.38-1,.04-.68-.09-1.38-.04-2.06.09-1.11,1.14-1.76,2.12-1.37,1.53.6,2.08,3.22.92,4.47-1.43-.65.55-2.76-1.62-3.28,0,.82-.01,1.55,0,2.28.02.96.12,2-1.11,2.3-1.21.3-1.94-.4-2.43-1.42-.68-1.41-.54-2.53.83-3.47Z"/>
    <path class="cls-3" d="M408.88,173.13c.53-.13,1.02-.25,1.67-.4.69,3.55,1.37,7.01,2.07,10.63-.55.12-1.02.22-1.67.36-.7-3.55-1.37-7.02-2.07-10.58Z"/>
    <path class="cls-3" d="M425.28,62.3c1.33-2.41,2.59-4.69,3.92-7.09.46.23.86.43,1.38.68-1.11,2.03-2.18,3.97-3.29,6.01,1.21.7,2.35,1.37,3.54,2.06-.17.35-.31.65-.53,1.11-1.65-.91-3.25-1.8-5.01-2.77Z"/>
    <path class="cls-3" d="M457.78,83.62c-.43.28-.86.56-1.15.75-.11.61-.21,1.1-.36,1.9-.57-.54-.83-.79-1.12-1.07-.7.41-1.37.79-2.03,1.19-.47.28-1.04.49-.69,1.27.06.14-.21.51-.41.65-.1.07-.45-.09-.6-.24-.9-.9-.79-1.84.3-2.55.61-.4,1.25-.75,1.88-1.13.22-.13.48-.25.63-.44.28-.36.5-1.1.75-1.11.95-.02,1.9.2,2.86.33-.01.15-.03.3-.04.45Z"/>
    <path class="cls-3" d="M400.2,56.23h-1.32c0-2.48-.04-4.93.05-7.36,0-.3.64-.58.98-.87.1.09.2.17.3.26v7.98Z"/>
    <path class="cls-3" d="M361.6,69.77c-.41.34-.71.58-1.13.92-.9-1.07-1.78-2.11-2.65-3.15-.85-1.01-1.69-2.03-2.58-3.11.4-.33.71-.59,1.11-.92,1.76,2.09,3.46,4.12,5.25,6.26Z"/>
    <path class="cls-3" d="M415.4,75.71c.63-.72,1.05-1.66,1.56-1.7,1.04-.1,1.62.82,1.89,1.78.41,1.46-.2,3.3-1.43,3.96-.39.21-1.04-.07-1.57-.12.2-.42.37-.87.62-1.26.1-.16.42-.17.53-.33.3-.43.8-.94.74-1.35-.05-.32-.8-.56-1.26-.79-.21-.1-.48-.09-1.08-.18Z"/>
    <path class="cls-3" d="M444.9,78.08c-.31-.34-.56-.62-.94-1.05,1.51-1.23,2.99-2.44,4.56-3.72.26.33.71.64.68.89-.1.67.26.68.71.86.33.13.63.58.71.94.04.17-.46.47-.8.79-.82-1.53-1.76-1.16-2.75-.36-.69.56-1.41,1.08-2.16,1.65Z"/>
    <path class="cls-3" d="M355.93,95.21c-.76,1.99-1.47,3.82-2.2,5.74-.53-.21-.98-.38-1.53-.6.73-1.91,1.42-3.73,2.17-5.68.52.18.98.34,1.57.54Z"/>
    <path class="cls-3" d="M432.65,66.7c-.46-.3-.78-.51-1.22-.8,1.03-1.65,2.03-3.26,3.08-4.94.42.25.78.46,1.25.74-1.04,1.68-2.05,3.29-3.11,5.01Z"/>
    <path class="cls-3" d="M431.46,105.91c.42-.61.7-1.04.99-1.45q1.18-1.66-.27-3.36c.49-.28,1.25-.85,1.36-.75.5.47,1.01,1.09,1.14,1.74.21,1.03-1.84,3.46-3.22,3.82Z"/>
    <path class="cls-3" d="M422.83,72.42c-.3.57-.51.98-.77,1.47-1.18-.61-2.3-1.18-3.5-1.8.26-.52.46-.92.73-1.47,1.19.6,2.31,1.17,3.55,1.8Z"/>
    <path class="cls-3" d="M442.17,148.22c.36-.5.64-.87,1-1.36.51.35.99.67,1.6,1.08-.32.48-.62.91-.96,1.42-.55-.38-1.04-.72-1.64-1.14Z"/>
    <path class="cls-3" d="M370.26,161.42c-.4.61-.71,1.09-1.08,1.65-.49-.3-.91-.56-1.42-.89.37-.58.7-1.09,1.07-1.66.49.31.87.54,1.43.89Z"/>
    <path class="cls-3" d="M436.29,60.82c-.44-.27-.78-.48-1.18-.73.22-.39.41-.7.63-1.08.4.23.75.42,1.21.68-.23.39-.42.72-.66,1.13Z"/>
  </g>
</svg>